<svg xmlns="http://www.w3.org/2000/svg" xmlns:xlink="http://www.w3.org/1999/xlink" width="500" zoomAndPan="magnify" viewBox="0 0 375 374.999991" height="500" preserveAspectRatio="xMidYMid meet" version="1.0"><defs><g/><clipPath id="c85765ced6"><path d="M 266.414062 152.703125 L 275.246094 152.703125 L 275.246094 161.535156 L 266.414062 161.535156 Z M 266.414062 152.703125 " clip-rule="nonzero"/></clipPath><clipPath id="6fe32e5d68"><path d="M 270.828125 152.703125 C 268.390625 152.703125 266.414062 154.679688 266.414062 157.121094 C 266.414062 159.558594 268.390625 161.535156 270.828125 161.535156 C 273.269531 161.535156 275.246094 159.558594 275.246094 157.121094 C 275.246094 154.679688 273.269531 152.703125 270.828125 152.703125 Z M 270.828125 152.703125 " clip-rule="nonzero"/></clipPath></defs><g fill="#f4c300" fill-opacity="1"><g transform="translate(6.988744, 270.937567)"><g><path d="M 100.375 3.171875 C 87.863281 3.171875 76.328125 0.976562 65.765625 -3.40625 C 55.210938 -7.789062 46.078125 -13.921875 38.359375 -21.796875 C 30.648438 -29.679688 24.679688 -39.019531 20.453125 -49.8125 C 16.234375 -60.613281 14.125 -72.429688 14.125 -85.265625 C 14.125 -98.097656 16.234375 -109.914062 20.453125 -120.71875 C 24.679688 -131.519531 30.648438 -140.859375 38.359375 -148.734375 C 46.078125 -156.609375 55.210938 -162.738281 65.765625 -167.125 C 76.328125 -171.507812 87.863281 -173.703125 100.375 -173.703125 C 113.851562 -173.703125 126.234375 -171.222656 137.515625 -166.265625 C 148.804688 -161.316406 158.472656 -154.253906 166.515625 -145.078125 C 174.554688 -135.898438 180.445312 -125.0625 184.1875 -112.5625 L 161.28125 -112.5625 C 156.894531 -124.894531 149.300781 -134.59375 138.5 -141.65625 C 127.695312 -148.726562 115.234375 -152.265625 101.109375 -152.265625 C 88.441406 -152.265625 77.234375 -149.421875 67.484375 -143.734375 C 57.734375 -138.054688 50.054688 -130.179688 44.453125 -120.109375 C 38.859375 -110.035156 36.0625 -98.421875 36.0625 -85.265625 C 36.0625 -72.109375 38.859375 -60.492188 44.453125 -50.421875 C 50.054688 -40.359375 57.734375 -32.484375 67.484375 -26.796875 C 77.234375 -21.109375 88.441406 -18.265625 101.109375 -18.265625 C 115.554688 -18.265625 128.382812 -22 139.59375 -29.46875 C 150.800781 -36.945312 158.597656 -47.101562 162.984375 -59.9375 L 185.640625 -59.9375 C 182.234375 -47.257812 176.425781 -36.210938 168.21875 -26.796875 C 160.019531 -17.378906 150.113281 -10.03125 138.5 -4.75 C 126.882812 0.53125 114.175781 3.171875 100.375 3.171875 Z M 100.375 3.171875 "/></g></g></g><g fill="#ffffff" fill-opacity="1"><g transform="translate(165.383593, 202.37333)"><g><path d="M 5.125 0 L 5.125 -35.125 L 26.453125 -35.125 L 26.453125 -31.015625 L 9.53125 -31.015625 L 9.53125 -19.921875 L 25.1875 -19.921875 L 25.1875 -15.859375 L 9.53125 -15.859375 L 9.53125 -4.109375 L 27 -4.109375 L 27 0 Z M 5.125 0 "/></g></g></g><g fill="#ffffff" fill-opacity="1"><g transform="translate(196.351665, 202.37333)"><g><path d="M 5.125 0 L 5.125 -35.125 L 18.515625 -35.125 C 20.960938 -35.125 23.085938 -34.664062 24.890625 -33.75 C 26.703125 -32.832031 28.109375 -31.535156 29.109375 -29.859375 C 30.109375 -28.191406 30.609375 -26.1875 30.609375 -23.84375 C 30.609375 -21 29.875 -18.644531 28.40625 -16.78125 C 26.9375 -14.925781 24.910156 -13.679688 22.328125 -13.046875 L 31.171875 0 L 25.84375 0 L 17.265625 -12.59375 L 9.53125 -12.59375 L 9.53125 0 Z M 9.53125 -16.8125 L 18.015625 -16.8125 C 20.585938 -16.8125 22.578125 -17.421875 23.984375 -18.640625 C 25.390625 -19.859375 26.09375 -21.59375 26.09375 -23.84375 C 26.09375 -26.082031 25.390625 -27.820312 23.984375 -29.0625 C 22.578125 -30.300781 20.585938 -30.921875 18.015625 -30.921875 L 9.53125 -30.921875 Z M 9.53125 -16.8125 "/></g></g></g><g fill="#ffffff" fill-opacity="1"><g transform="translate(231.234657, 202.37333)"><g><path d="M 13.59375 0 L 13.59375 -30.921875 L 1.703125 -30.921875 L 1.703125 -35.125 L 29.859375 -35.125 L 29.859375 -30.921875 L 18.015625 -30.921875 L 18.015625 0 Z M 13.59375 0 "/></g></g></g><g fill="#ffffff" fill-opacity="1"><g transform="translate(263.557898, 202.37333)"><g><path d="M 5.125 0 L 5.125 -35.125 L 9.53125 -35.125 L 9.53125 0 Z M 5.125 0 "/></g></g></g><g fill="#ffffff" fill-opacity="1"><g transform="translate(196.128264, 248.599041)"><g><path d="M 3.890625 0 L 3.890625 -37.84375 L 11.65625 -37.84375 L 11.65625 -24.796875 C 12.675781 -25.722656 13.867188 -26.414062 15.234375 -26.875 C 16.597656 -27.332031 18.03125 -27.5625 19.53125 -27.5625 C 23.007812 -27.5625 25.738281 -26.488281 27.71875 -24.34375 C 29.695312 -22.195312 30.6875 -19.25 30.6875 -15.5 L 30.6875 0 L 22.90625 0 L 22.90625 -14.734375 C 22.90625 -16.703125 22.4375 -18.222656 21.5 -19.296875 C 20.5625 -20.378906 19.257812 -20.921875 17.59375 -20.921875 C 15.820312 -20.921875 14.390625 -20.3125 13.296875 -19.09375 C 12.203125 -17.882812 11.65625 -16.222656 11.65625 -14.109375 L 11.65625 0 Z M 3.890625 0 "/></g></g></g><g fill="#ffffff" fill-opacity="1"><g transform="translate(226.608244, 248.599041)"><g><path d="M 17.078125 0.71875 C 14.109375 0.71875 11.488281 0.125 9.21875 -1.0625 C 6.957031 -2.257812 5.1875 -3.921875 3.90625 -6.046875 C 2.632812 -8.179688 2 -10.648438 2 -13.453125 C 2 -16.242188 2.632812 -18.695312 3.90625 -20.8125 C 5.1875 -22.925781 6.957031 -24.578125 9.21875 -25.765625 C 11.488281 -26.960938 14.109375 -27.5625 17.078125 -27.5625 C 20.046875 -27.5625 22.660156 -26.960938 24.921875 -25.765625 C 27.191406 -24.578125 28.957031 -22.925781 30.21875 -20.8125 C 31.476562 -18.695312 32.109375 -16.242188 32.109375 -13.453125 C 32.109375 -10.648438 31.476562 -8.179688 30.21875 -6.046875 C 28.957031 -3.921875 27.191406 -2.257812 24.921875 -1.0625 C 22.660156 0.125 20.046875 0.71875 17.078125 0.71875 Z M 9.671875 -13.453125 C 9.671875 -11.265625 10.359375 -9.472656 11.734375 -8.078125 C 13.117188 -6.679688 14.898438 -5.984375 17.078125 -5.984375 C 19.265625 -5.984375 21.035156 -6.679688 22.390625 -8.078125 C 23.753906 -9.472656 24.4375 -11.265625 24.4375 -13.453125 C 24.4375 -15.671875 23.753906 -17.46875 22.390625 -18.84375 C 21.035156 -20.226562 19.265625 -20.921875 17.078125 -20.921875 C 14.898438 -20.921875 13.117188 -20.226562 11.734375 -18.84375 C 10.359375 -17.46875 9.671875 -15.671875 9.671875 -13.453125 Z M 9.671875 -13.453125 "/></g></g></g><g fill="#ffffff" fill-opacity="1"><g transform="translate(257.13937, 248.599041)"><g><path d="M 3.890625 0 L 3.890625 -26.84375 L 9.671875 -26.84375 L 10.4375 -24.09375 C 11.425781 -25.25 12.625 -26.113281 14.03125 -26.6875 C 15.445312 -27.269531 17.007812 -27.5625 18.71875 -27.5625 C 22.675781 -27.5625 25.625 -26.097656 27.5625 -23.171875 C 28.65625 -24.566406 30.023438 -25.644531 31.671875 -26.40625 C 33.328125 -27.175781 35.179688 -27.5625 37.234375 -27.5625 C 40.671875 -27.5625 43.40625 -26.492188 45.4375 -24.359375 C 47.46875 -22.234375 48.484375 -19.332031 48.484375 -15.65625 L 48.484375 0 L 40.703125 0 L 40.703125 -14.734375 C 40.703125 -16.640625 40.234375 -18.144531 39.296875 -19.25 C 38.359375 -20.363281 37.085938 -20.921875 35.484375 -20.921875 C 33.816406 -20.921875 32.488281 -20.335938 31.5 -19.171875 C 30.507812 -18.015625 30.015625 -16.46875 30.015625 -14.53125 L 30.015625 0 L 22.34375 0 L 22.34375 -14.734375 C 22.34375 -16.640625 21.875 -18.144531 20.9375 -19.25 C 20 -20.363281 18.726562 -20.921875 17.125 -20.921875 C 15.457031 -20.921875 14.128906 -20.335938 13.140625 -19.171875 C 12.148438 -18.015625 11.65625 -16.46875 11.65625 -14.53125 L 11.65625 0 Z M 3.890625 0 "/></g></g></g><g fill="#ffffff" fill-opacity="1"><g transform="translate(305.416504, 248.599041)"><g><path d="M 16.5625 0.71875 C 13.707031 0.71875 11.175781 0.125 8.96875 -1.0625 C 6.769531 -2.257812 5.054688 -3.921875 3.828125 -6.046875 C 2.609375 -8.179688 2 -10.648438 2 -13.453125 C 2 -16.242188 2.617188 -18.695312 3.859375 -20.8125 C 5.109375 -22.925781 6.832031 -24.578125 9.03125 -25.765625 C 11.226562 -26.960938 13.773438 -27.5625 16.671875 -27.5625 C 19.742188 -27.5625 22.394531 -26.878906 24.625 -25.515625 C 26.851562 -24.148438 28.554688 -22.238281 29.734375 -19.78125 C 30.910156 -17.332031 31.414062 -14.472656 31.25 -11.203125 L 9.71875 -11.203125 C 10.09375 -9.359375 10.910156 -7.945312 12.171875 -6.96875 C 13.429688 -6 14.945312 -5.515625 16.71875 -5.515625 C 18.019531 -5.515625 19.207031 -5.757812 20.28125 -6.25 C 21.351562 -6.75 22.210938 -7.441406 22.859375 -8.328125 L 30.734375 -8.328125 C 29.578125 -5.503906 27.753906 -3.289062 25.265625 -1.6875 C 22.773438 -0.0820312 19.875 0.71875 16.5625 0.71875 Z M 9.765625 -16.109375 L 23.734375 -16.109375 C 23.285156 -17.742188 22.457031 -19.03125 21.25 -19.96875 C 20.039062 -20.90625 18.53125 -21.375 16.71875 -21.375 C 15.019531 -21.375 13.546875 -20.90625 12.296875 -19.96875 C 11.054688 -19.03125 10.210938 -17.742188 9.765625 -16.109375 Z M 9.765625 -16.109375 "/></g></g></g><g fill="#ffffff" fill-opacity="1"><g transform="translate(335.02708, 248.599041)"><g><path d="M 14.21875 0.71875 C 11.757812 0.71875 9.617188 0.328125 7.796875 -0.453125 C 5.972656 -1.242188 4.554688 -2.335938 3.546875 -3.734375 C 2.546875 -5.128906 2.046875 -6.765625 2.046875 -8.640625 L 9.671875 -8.640625 C 9.703125 -7.546875 10.125 -6.675781 10.9375 -6.03125 C 11.757812 -5.382812 12.882812 -5.0625 14.3125 -5.0625 C 15.539062 -5.0625 16.492188 -5.289062 17.171875 -5.75 C 17.859375 -6.207031 18.203125 -6.832031 18.203125 -7.625 C 18.203125 -8.476562 17.738281 -9.1875 16.8125 -9.75 C 15.894531 -10.3125 14.398438 -10.757812 12.328125 -11.09375 C 8.910156 -11.707031 6.398438 -12.695312 4.796875 -14.0625 C 3.203125 -15.425781 2.40625 -17.21875 2.40625 -19.4375 C 2.40625 -22.0625 3.382812 -24.070312 5.34375 -25.46875 C 7.300781 -26.863281 10.085938 -27.5625 13.703125 -27.5625 C 17.285156 -27.5625 20.085938 -26.796875 22.109375 -25.265625 C 24.140625 -23.734375 25.242188 -21.550781 25.421875 -18.71875 L 18 -18.71875 C 17.9375 -19.738281 17.519531 -20.53125 16.75 -21.09375 C 15.976562 -21.65625 14.945312 -21.9375 13.65625 -21.9375 C 12.5 -21.9375 11.585938 -21.710938 10.921875 -21.265625 C 10.253906 -20.828125 9.921875 -20.21875 9.921875 -19.4375 C 9.921875 -18.613281 10.351562 -17.972656 11.21875 -17.515625 C 12.09375 -17.054688 13.671875 -16.585938 15.953125 -16.109375 C 22.566406 -14.773438 25.875 -11.925781 25.875 -7.5625 C 25.875 -5.007812 24.84375 -2.988281 22.78125 -1.5 C 20.71875 -0.0195312 17.863281 0.71875 14.21875 0.71875 Z M 14.21875 0.71875 "/></g></g></g><g clip-path="url(#c85765ced6)"><g clip-path="url(#6fe32e5d68)"><path fill="#f4c300" d="M 266.414062 152.703125 L 275.246094 152.703125 L 275.246094 161.535156 L 266.414062 161.535156 Z M 266.414062 152.703125 " fill-opacity="1" fill-rule="nonzero"/></g></g></svg>